<mxfile host="app.diagrams.net" modified="2022-06-14T00:51:21.659Z" agent="5.0 (Windows)" etag="eprF9qIJZs3DpZJWDXCg" version="20.0.1" type="github">
  <diagram id="C5RBs43oDa-KdzZeNtuy" name="Page-1">
    <mxGraphModel dx="2400" dy="913" grid="1" gridSize="10" guides="1" tooltips="1" connect="1" arrows="1" fold="1" page="1" pageScale="1" pageWidth="827" pageHeight="1169" math="0" shadow="0">
      <root>
        <mxCell id="WIyWlLk6GJQsqaUBKTNV-0" />
        <mxCell id="WIyWlLk6GJQsqaUBKTNV-1" parent="WIyWlLk6GJQsqaUBKTNV-0" />
        <mxCell id="WIyWlLk6GJQsqaUBKTNV-5" value="yes" style="edgeStyle=orthogonalEdgeStyle;rounded=0;html=1;jettySize=auto;orthogonalLoop=1;fontSize=11;endArrow=block;endFill=0;endSize=8;strokeWidth=1;shadow=0;labelBackgroundColor=none;" parent="WIyWlLk6GJQsqaUBKTNV-1" source="WIyWlLk6GJQsqaUBKTNV-6" target="aWo7cNAg9eJQfCzD1ZZA-0" edge="1">
          <mxGeometry x="0.0354" y="-20" relative="1" as="geometry">
            <mxPoint x="1" as="offset" />
            <mxPoint x="465" y="260" as="targetPoint" />
          </mxGeometry>
        </mxCell>
        <mxCell id="WIyWlLk6GJQsqaUBKTNV-6" value="Is n1&amp;gt;n2" style="rhombus;whiteSpace=wrap;html=1;shadow=0;fontFamily=Helvetica;fontSize=12;align=center;strokeWidth=1;spacing=6;spacingTop=-4;" parent="WIyWlLk6GJQsqaUBKTNV-1" vertex="1">
          <mxGeometry x="470" y="210" width="100" height="80" as="geometry" />
        </mxCell>
        <mxCell id="aWo7cNAg9eJQfCzD1ZZA-0" value="Is n2&amp;gt;n3" style="rhombus;whiteSpace=wrap;html=1;shadow=0;fontFamily=Helvetica;fontSize=12;align=center;strokeWidth=1;spacing=6;spacingTop=-4;" vertex="1" parent="WIyWlLk6GJQsqaUBKTNV-1">
          <mxGeometry x="817" y="320" width="100" height="80" as="geometry" />
        </mxCell>
        <mxCell id="aWo7cNAg9eJQfCzD1ZZA-1" value="is n2&amp;gt;n3" style="rhombus;whiteSpace=wrap;html=1;shadow=0;fontFamily=Helvetica;fontSize=12;align=center;strokeWidth=1;spacing=6;spacingTop=-4;" vertex="1" parent="WIyWlLk6GJQsqaUBKTNV-1">
          <mxGeometry x="155" y="340" width="100" height="80" as="geometry" />
        </mxCell>
        <mxCell id="aWo7cNAg9eJQfCzD1ZZA-4" value="No" style="rounded=0;html=1;jettySize=auto;orthogonalLoop=1;fontSize=11;endArrow=block;endFill=0;endSize=8;strokeWidth=1;shadow=0;labelBackgroundColor=none;edgeStyle=orthogonalEdgeStyle;exitX=0;exitY=0.5;exitDx=0;exitDy=0;" edge="1" parent="WIyWlLk6GJQsqaUBKTNV-1" source="WIyWlLk6GJQsqaUBKTNV-6">
          <mxGeometry x="0.3333" y="20" relative="1" as="geometry">
            <mxPoint as="offset" />
            <mxPoint x="205" y="270" as="sourcePoint" />
            <mxPoint x="205" y="340" as="targetPoint" />
          </mxGeometry>
        </mxCell>
        <mxCell id="aWo7cNAg9eJQfCzD1ZZA-6" value="&lt;div&gt;Read &lt;br&gt;&lt;/div&gt;&lt;div&gt;n1,n2,n3&lt;br&gt;&lt;/div&gt;" style="shape=parallelogram;perimeter=parallelogramPerimeter;whiteSpace=wrap;html=1;fixedSize=1;" vertex="1" parent="WIyWlLk6GJQsqaUBKTNV-1">
          <mxGeometry x="460" y="100" width="120" height="70" as="geometry" />
        </mxCell>
        <mxCell id="aWo7cNAg9eJQfCzD1ZZA-9" value="" style="rounded=0;html=1;jettySize=auto;orthogonalLoop=1;fontSize=11;endArrow=block;endFill=0;endSize=8;strokeWidth=1;shadow=0;labelBackgroundColor=none;edgeStyle=orthogonalEdgeStyle;" edge="1" parent="WIyWlLk6GJQsqaUBKTNV-1">
          <mxGeometry y="21" relative="1" as="geometry">
            <mxPoint as="offset" />
            <mxPoint x="519.5" y="60" as="sourcePoint" />
            <mxPoint x="519.5" y="100" as="targetPoint" />
          </mxGeometry>
        </mxCell>
        <mxCell id="aWo7cNAg9eJQfCzD1ZZA-13" value="" style="rounded=0;html=1;jettySize=auto;orthogonalLoop=1;fontSize=11;endArrow=block;endFill=0;endSize=8;strokeWidth=1;shadow=0;labelBackgroundColor=none;edgeStyle=orthogonalEdgeStyle;" edge="1" parent="WIyWlLk6GJQsqaUBKTNV-1">
          <mxGeometry y="21" relative="1" as="geometry">
            <mxPoint as="offset" />
            <mxPoint x="519.5" y="170" as="sourcePoint" />
            <mxPoint x="519.5" y="210" as="targetPoint" />
            <Array as="points">
              <mxPoint x="519.5" y="200" />
              <mxPoint x="519.5" y="200" />
            </Array>
          </mxGeometry>
        </mxCell>
        <mxCell id="aWo7cNAg9eJQfCzD1ZZA-14" value="start" style="ellipse;whiteSpace=wrap;html=1;" vertex="1" parent="WIyWlLk6GJQsqaUBKTNV-1">
          <mxGeometry x="455" width="120" height="60" as="geometry" />
        </mxCell>
        <mxCell id="aWo7cNAg9eJQfCzD1ZZA-15" value="No" style="rounded=0;html=1;jettySize=auto;orthogonalLoop=1;fontSize=11;endArrow=block;endFill=0;endSize=8;strokeWidth=1;shadow=0;labelBackgroundColor=none;edgeStyle=orthogonalEdgeStyle;exitX=0;exitY=0.5;exitDx=0;exitDy=0;" edge="1" parent="WIyWlLk6GJQsqaUBKTNV-1">
          <mxGeometry x="0.3333" y="20" relative="1" as="geometry">
            <mxPoint as="offset" />
            <mxPoint x="155" y="380" as="sourcePoint" />
            <mxPoint x="90" y="470" as="targetPoint" />
          </mxGeometry>
        </mxCell>
        <mxCell id="aWo7cNAg9eJQfCzD1ZZA-20" value="Yes" style="rounded=0;html=1;jettySize=auto;orthogonalLoop=1;fontSize=11;endArrow=block;endFill=0;endSize=8;strokeWidth=1;shadow=0;labelBackgroundColor=none;edgeStyle=orthogonalEdgeStyle;exitX=1;exitY=0.5;exitDx=0;exitDy=0;" edge="1" parent="WIyWlLk6GJQsqaUBKTNV-1" source="aWo7cNAg9eJQfCzD1ZZA-1">
          <mxGeometry y="20" relative="1" as="geometry">
            <mxPoint as="offset" />
            <mxPoint x="289.5" y="420" as="sourcePoint" />
            <mxPoint x="289.5" y="460" as="targetPoint" />
          </mxGeometry>
        </mxCell>
        <mxCell id="aWo7cNAg9eJQfCzD1ZZA-24" value="No" style="rounded=0;html=1;jettySize=auto;orthogonalLoop=1;fontSize=11;endArrow=block;endFill=0;endSize=8;strokeWidth=1;shadow=0;labelBackgroundColor=none;edgeStyle=orthogonalEdgeStyle;exitX=0;exitY=0.5;exitDx=0;exitDy=0;" edge="1" parent="WIyWlLk6GJQsqaUBKTNV-1">
          <mxGeometry x="0.3333" y="20" relative="1" as="geometry">
            <mxPoint as="offset" />
            <mxPoint x="817" y="360" as="sourcePoint" />
            <mxPoint x="752" y="450" as="targetPoint" />
          </mxGeometry>
        </mxCell>
        <mxCell id="aWo7cNAg9eJQfCzD1ZZA-25" value="Yes" style="rounded=0;html=1;jettySize=auto;orthogonalLoop=1;fontSize=11;endArrow=block;endFill=0;endSize=8;strokeWidth=1;shadow=0;labelBackgroundColor=none;edgeStyle=orthogonalEdgeStyle;exitX=1;exitY=0.5;exitDx=0;exitDy=0;" edge="1" parent="WIyWlLk6GJQsqaUBKTNV-1">
          <mxGeometry y="20" relative="1" as="geometry">
            <mxPoint as="offset" />
            <mxPoint x="917" y="360" as="sourcePoint" />
            <mxPoint x="951.5" y="440" as="targetPoint" />
          </mxGeometry>
        </mxCell>
        <mxCell id="aWo7cNAg9eJQfCzD1ZZA-26" value="&lt;div&gt;Print &lt;br&gt;&lt;/div&gt;&lt;div&gt;n1,n2,n3&lt;br&gt;&lt;/div&gt;" style="shape=parallelogram;perimeter=parallelogramPerimeter;whiteSpace=wrap;html=1;fixedSize=1;" vertex="1" parent="WIyWlLk6GJQsqaUBKTNV-1">
          <mxGeometry x="917" y="440" width="120" height="60" as="geometry" />
        </mxCell>
        <mxCell id="aWo7cNAg9eJQfCzD1ZZA-27" value="&lt;div&gt;Print &lt;br&gt;&lt;/div&gt;&lt;div&gt;n3,n2,n1&lt;br&gt;&lt;/div&gt;" style="shape=parallelogram;perimeter=parallelogramPerimeter;whiteSpace=wrap;html=1;fixedSize=1;" vertex="1" parent="WIyWlLk6GJQsqaUBKTNV-1">
          <mxGeometry x="35" y="460" width="120" height="60" as="geometry" />
        </mxCell>
        <mxCell id="aWo7cNAg9eJQfCzD1ZZA-28" value="print n2, n3, n1" style="shape=parallelogram;perimeter=parallelogramPerimeter;whiteSpace=wrap;html=1;fixedSize=1;" vertex="1" parent="WIyWlLk6GJQsqaUBKTNV-1">
          <mxGeometry x="315" y="580" width="120" height="60" as="geometry" />
        </mxCell>
        <mxCell id="aWo7cNAg9eJQfCzD1ZZA-29" value="Is n3&amp;gt;n1" style="rhombus;whiteSpace=wrap;html=1;shadow=0;fontFamily=Helvetica;fontSize=12;align=center;strokeWidth=1;spacing=6;spacingTop=-4;" vertex="1" parent="WIyWlLk6GJQsqaUBKTNV-1">
          <mxGeometry x="240" y="460" width="100" height="80" as="geometry" />
        </mxCell>
        <mxCell id="aWo7cNAg9eJQfCzD1ZZA-30" value="Yes" style="rounded=0;html=1;jettySize=auto;orthogonalLoop=1;fontSize=11;endArrow=block;endFill=0;endSize=8;strokeWidth=1;shadow=0;labelBackgroundColor=none;edgeStyle=orthogonalEdgeStyle;exitX=1;exitY=0.5;exitDx=0;exitDy=0;" edge="1" parent="WIyWlLk6GJQsqaUBKTNV-1">
          <mxGeometry y="20" relative="1" as="geometry">
            <mxPoint as="offset" />
            <mxPoint x="340" y="500" as="sourcePoint" />
            <mxPoint x="374.5" y="580" as="targetPoint" />
          </mxGeometry>
        </mxCell>
        <mxCell id="aWo7cNAg9eJQfCzD1ZZA-31" value="No" style="rounded=0;html=1;jettySize=auto;orthogonalLoop=1;fontSize=11;endArrow=block;endFill=0;endSize=8;strokeWidth=1;shadow=0;labelBackgroundColor=none;edgeStyle=orthogonalEdgeStyle;exitX=0;exitY=0.5;exitDx=0;exitDy=0;" edge="1" parent="WIyWlLk6GJQsqaUBKTNV-1">
          <mxGeometry x="0.3333" y="20" relative="1" as="geometry">
            <mxPoint as="offset" />
            <mxPoint x="240" y="500" as="sourcePoint" />
            <mxPoint x="175" y="590" as="targetPoint" />
          </mxGeometry>
        </mxCell>
        <mxCell id="aWo7cNAg9eJQfCzD1ZZA-32" value="print n2, n1, n3" style="shape=parallelogram;perimeter=parallelogramPerimeter;whiteSpace=wrap;html=1;fixedSize=1;" vertex="1" parent="WIyWlLk6GJQsqaUBKTNV-1">
          <mxGeometry x="120" y="590" width="120" height="60" as="geometry" />
        </mxCell>
        <mxCell id="aWo7cNAg9eJQfCzD1ZZA-33" value="print n3, n1, n2" style="shape=parallelogram;perimeter=parallelogramPerimeter;whiteSpace=wrap;html=1;fixedSize=1;" vertex="1" parent="WIyWlLk6GJQsqaUBKTNV-1">
          <mxGeometry x="775" y="570" width="120" height="60" as="geometry" />
        </mxCell>
        <mxCell id="aWo7cNAg9eJQfCzD1ZZA-34" value="Is n3&amp;gt;n1" style="rhombus;whiteSpace=wrap;html=1;shadow=0;fontFamily=Helvetica;fontSize=12;align=center;strokeWidth=1;spacing=6;spacingTop=-4;" vertex="1" parent="WIyWlLk6GJQsqaUBKTNV-1">
          <mxGeometry x="700" y="450" width="100" height="80" as="geometry" />
        </mxCell>
        <mxCell id="aWo7cNAg9eJQfCzD1ZZA-35" value="Yes" style="rounded=0;html=1;jettySize=auto;orthogonalLoop=1;fontSize=11;endArrow=block;endFill=0;endSize=8;strokeWidth=1;shadow=0;labelBackgroundColor=none;edgeStyle=orthogonalEdgeStyle;exitX=1;exitY=0.5;exitDx=0;exitDy=0;" edge="1" parent="WIyWlLk6GJQsqaUBKTNV-1">
          <mxGeometry y="20" relative="1" as="geometry">
            <mxPoint as="offset" />
            <mxPoint x="800" y="490" as="sourcePoint" />
            <mxPoint x="834.5" y="570" as="targetPoint" />
          </mxGeometry>
        </mxCell>
        <mxCell id="aWo7cNAg9eJQfCzD1ZZA-36" value="No" style="rounded=0;html=1;jettySize=auto;orthogonalLoop=1;fontSize=11;endArrow=block;endFill=0;endSize=8;strokeWidth=1;shadow=0;labelBackgroundColor=none;edgeStyle=orthogonalEdgeStyle;exitX=0;exitY=0.5;exitDx=0;exitDy=0;" edge="1" parent="WIyWlLk6GJQsqaUBKTNV-1">
          <mxGeometry x="0.3333" y="20" relative="1" as="geometry">
            <mxPoint as="offset" />
            <mxPoint x="700" y="490" as="sourcePoint" />
            <mxPoint x="635" y="580" as="targetPoint" />
          </mxGeometry>
        </mxCell>
        <mxCell id="aWo7cNAg9eJQfCzD1ZZA-37" value="print n1, n3,n2" style="shape=parallelogram;perimeter=parallelogramPerimeter;whiteSpace=wrap;html=1;fixedSize=1;" vertex="1" parent="WIyWlLk6GJQsqaUBKTNV-1">
          <mxGeometry x="580" y="580" width="120" height="60" as="geometry" />
        </mxCell>
        <mxCell id="aWo7cNAg9eJQfCzD1ZZA-38" value="stop" style="ellipse;whiteSpace=wrap;html=1;" vertex="1" parent="WIyWlLk6GJQsqaUBKTNV-1">
          <mxGeometry x="435" y="950" width="120" height="60" as="geometry" />
        </mxCell>
        <mxCell id="aWo7cNAg9eJQfCzD1ZZA-41" value="" style="rounded=0;html=1;jettySize=auto;orthogonalLoop=1;fontSize=11;endArrow=block;endFill=0;endSize=8;strokeWidth=1;shadow=0;labelBackgroundColor=none;edgeStyle=orthogonalEdgeStyle;exitX=0.342;exitY=1;exitDx=0;exitDy=0;exitPerimeter=0;entryX=0.422;entryY=-0.011;entryDx=0;entryDy=0;entryPerimeter=0;" edge="1" parent="WIyWlLk6GJQsqaUBKTNV-1" source="aWo7cNAg9eJQfCzD1ZZA-27" target="aWo7cNAg9eJQfCzD1ZZA-38">
          <mxGeometry x="0.3333" y="20" relative="1" as="geometry">
            <mxPoint as="offset" />
            <mxPoint x="40" y="620" as="sourcePoint" />
            <mxPoint x="290" y="850" as="targetPoint" />
            <Array as="points">
              <mxPoint x="76" y="790" />
              <mxPoint x="486" y="790" />
            </Array>
          </mxGeometry>
        </mxCell>
        <mxCell id="aWo7cNAg9eJQfCzD1ZZA-43" value="" style="endArrow=none;html=1;rounded=0;exitX=0.25;exitY=1;exitDx=0;exitDy=0;" edge="1" parent="WIyWlLk6GJQsqaUBKTNV-1" source="aWo7cNAg9eJQfCzD1ZZA-28">
          <mxGeometry width="50" height="50" relative="1" as="geometry">
            <mxPoint x="530" y="700" as="sourcePoint" />
            <mxPoint x="345" y="790" as="targetPoint" />
          </mxGeometry>
        </mxCell>
        <mxCell id="aWo7cNAg9eJQfCzD1ZZA-44" value="" style="endArrow=none;html=1;rounded=0;exitX=0.25;exitY=1;exitDx=0;exitDy=0;" edge="1" parent="WIyWlLk6GJQsqaUBKTNV-1">
          <mxGeometry width="50" height="50" relative="1" as="geometry">
            <mxPoint x="179.32999999999998" y="650" as="sourcePoint" />
            <mxPoint x="179" y="790" as="targetPoint" />
          </mxGeometry>
        </mxCell>
        <mxCell id="aWo7cNAg9eJQfCzD1ZZA-46" value="" style="endArrow=none;html=1;rounded=0;exitX=0.383;exitY=1.022;exitDx=0;exitDy=0;exitPerimeter=0;" edge="1" parent="WIyWlLk6GJQsqaUBKTNV-1" source="aWo7cNAg9eJQfCzD1ZZA-26">
          <mxGeometry width="50" height="50" relative="1" as="geometry">
            <mxPoint x="530" y="790" as="sourcePoint" />
            <mxPoint x="470" y="790" as="targetPoint" />
            <Array as="points">
              <mxPoint x="963" y="790" />
            </Array>
          </mxGeometry>
        </mxCell>
        <mxCell id="aWo7cNAg9eJQfCzD1ZZA-47" value="" style="endArrow=none;html=1;rounded=0;" edge="1" parent="WIyWlLk6GJQsqaUBKTNV-1">
          <mxGeometry width="50" height="50" relative="1" as="geometry">
            <mxPoint x="630" y="790" as="sourcePoint" />
            <mxPoint x="630" y="640" as="targetPoint" />
          </mxGeometry>
        </mxCell>
        <mxCell id="aWo7cNAg9eJQfCzD1ZZA-48" value="" style="endArrow=none;html=1;rounded=0;" edge="1" parent="WIyWlLk6GJQsqaUBKTNV-1">
          <mxGeometry width="50" height="50" relative="1" as="geometry">
            <mxPoint x="826" y="790" as="sourcePoint" />
            <mxPoint x="826" y="630" as="targetPoint" />
          </mxGeometry>
        </mxCell>
      </root>
    </mxGraphModel>
  </diagram>
</mxfile>
